<?xml version="1.0" standalone="no"?>
<!DOCTYPE svg PUBLIC "-//W3C//DTD SVG 20010904//EN"
 "http://www.w3.org/TR/2001/REC-SVG-20010904/DTD/svg10.dtd">
<svg version="1.0" xmlns="http://www.w3.org/2000/svg"
 width="800.000000pt" height="800.000000pt" viewBox="0 0 800.000000 800.000000"
 preserveAspectRatio="xMidYMid meet">
<metadata>
Created by potrace 1.14, written by Peter Selinger 2001-2017
</metadata>
<g transform="translate(0.000000,800.000000) scale(0.100000,-0.100000)"
fill="#000000" stroke="none">
<path d="M1306 7985 c-96 -20 -159 -41 -250 -87 -109 -54 -158 -89 -250 -177
-125 -122 -209 -254 -273 -436 l-28 -80 -3 -3603 -2 -3602 252 0 253 0 455
331 c250 182 472 342 492 356 l38 26 475 -357 c472 -354 475 -356 523 -356 48
0 52 2 522 355 260 195 476 355 478 355 3 0 218 -160 479 -355 470 -353 473
-355 521 -355 48 0 52 2 522 355 260 195 475 355 478 355 2 0 224 -160 493
-355 l490 -355 264 0 265 0 -2 3588 -3 3587 -23 80 c-28 99 -99 249 -156 329
-51 71 -180 198 -248 244 -73 50 -224 119 -313 144 l-80 23 -2650 2 c-2209 1
-2661 -1 -2719 -12z m5315 -541 c88 -26 150 -63 215 -128 65 -65 102 -127 128
-215 15 -50 16 -346 16 -3318 0 -1795 -2 -3263 -5 -3263 -2 0 -219 163 -482
362 -263 199 -485 362 -493 362 -8 0 -235 -175 -503 -390 -269 -214 -492 -389
-497 -389 -5 0 -228 175 -497 389 -268 215 -495 390 -503 390 -8 0 -235 -175
-503 -390 -269 -214 -492 -389 -497 -389 -5 0 -228 175 -496 388 -268 214
-492 391 -498 393 -7 3 -234 -166 -506 -374 l-495 -378 -3 3240 c-2 2188 1
3267 8 3320 23 181 141 322 318 383 l67 22 2586 1 c2349 0 2590 -1 2640 -16z"/>
<path d="M2142 6479 c-97 -48 -171 -186 -157 -291 15 -108 103 -197 216 -218
37 -7 645 -9 1825 -8 1608 3 1772 4 1805 19 100 46 169 156 169 268 0 79 -24
135 -82 186 -77 70 79 65 -1920 65 l-1813 0 -43 -21z"/>
<path d="M2165 4994 c-63 -22 -111 -68 -144 -137 -40 -83 -46 -133 -26 -202
18 -64 69 -126 129 -158 l41 -22 1805 -3 c2026 -3 1862 -9 1943 73 114 114
115 310 1 403 -80 66 56 62 -1918 61 -1528 0 -1797 -3 -1831 -15z"/>
<path d="M2154 3486 c-52 -23 -112 -84 -140 -144 -70 -146 -5 -311 144 -364
30 -10 384 -13 1837 -13 1640 0 1803 1 1836 16 136 62 210 248 148 375 -23 49
-86 110 -135 130 -49 21 -3643 20 -3690 0z"/>
</g>
</svg>
